<svg viewBox="0 0 1200 1200" xmlns="http://www.w3.org/2000/svg"><rect width="1200" height="1200" fill="#000"/><path fill="#FFF" d="M980.48 905.76l-198.84-199.08C771.671 680.38 758.431 505.62 724.074 293.98c-125.26-125.44-328.03-125.44-453.32 0-125.26 125.44-125.26 328.45 0 453.84 112.36 112.5 286.97 123.74 412.18 34.406L980.48 905.76c53.25 53.297 132.05-19.078 75.562-75.609ZM369.61 672.18c-83.391-83.531-83.391-218.86 0-302.39 83.391-83.531 218.58-83.531 302.02 0 83.391 83.531 83.391 218.86 0 302.39-83.438 83.484-218.63 83.484-302.02 0Z"/></svg>